<svg xmlns="http://www.w3.org/2000/svg" aria-hidden="true" style="position:absolute;width:0;height:0;overflow:hidden">
  <defs>
    <symbol id="icon-fiverr" viewBox="0 0 32 32">
      <path d="M30.672 20.784h.001a1.327 1.327 0 0 0 .002-2.654h-.001a1.327 1.327 0 0 0-.002 2.654zm-1.328-4.94h-1.133c-.728 0-1.12.547-1.12 1.456v3.288h-2.147v-4.744h-.912c-.729 0-1.12.547-1.12 1.456v3.288h-2.147v-6.499h2.147v.987c.352-.765.835-.987 1.551-.987h2.629v.987c.352-.765.833-.987 1.549-.987h.703v1.755zm-9.048 2.001h-4.479c.117.728.573 1.144 1.341 1.144.573 0 .976-.233 1.107-.649l1.9.533c-.468 1.131-1.627 1.819-3.007 1.819-2.331 0-3.399-1.807-3.399-3.353 0-1.52.937-3.34 3.267-3.34 2.475 0 3.295 1.845 3.295 3.211 0 .299-.013.493-.027.636zm-2.083-1.26c-.053-.56-.456-1.08-1.185-1.08-.677 0-1.08.3-1.211 1.08h2.396zm-8.202 4.002h1.888l2.356-6.499h-2.16l-1.147 3.783-1.171-3.783H7.626l2.383 6.499zm-8.8 0h2.136v-4.744h2.032v4.744H7.5v-6.499H3.347v-.403c0-.443.313-.715.808-.715h1.224v-1.755H3.8c-1.549 0-2.591.949-2.591 2.34v.533H0v1.755h1.211v4.744z"/>
    </symbol>
    <symbol id="icon-letter-n-svgrepo-com" viewBox="0 0 32 32">
      <path fill="#D5F60C" d="M32 28.444A3.556 3.556 0 0 1 28.444 32H3.555a3.556 3.556 0 0 1-3.556-3.556V3.555A3.556 3.556 0 0 1 3.555-.001h24.889A3.556 3.556 0 0 1 32 3.555v24.889z" style="fill:var(--color1, #D5F60C)"/>
      <path fill="#fff" d="M7.636 8.139c0-1.378.882-2.149 2.068-2.149.524 0 1.378.413 1.737.909l8.737 11.659h.055V8.139c0-1.378.882-2.149 2.066-2.149 1.186 0 2.068.772 2.068 2.149v15.654c0 1.379-.882 2.149-2.068 2.149-.523 0-1.349-.413-1.736-.908l-8.737-11.521h-.055v10.28c0 1.379-.882 2.149-2.068 2.149s-2.068-.771-2.068-2.149V8.139z" style="fill:var(--color2, #fff)"/>
    </symbol>
    <symbol id="icon-letter-u-svgrepo-com" viewBox="0 0 32 32">
      <path fill="#D5F60C" d="M32 28.444A3.556 3.556 0 0 1 28.444 32H3.555a3.556 3.556 0 0 1-3.556-3.556V3.555A3.556 3.556 0 0 1 3.555-.001h24.889A3.556 3.556 0 0 1 32 3.555v24.889z" style="fill:var(--color1, #D5F60C)"/>
      <path fill="#fff" d="M7.111 8.139c0-1.378 1.037-2.149 2.222-2.149s2.222.772 2.222 2.149v9.619c0 2.536 1.827 4.376 4.444 4.376 2.508 0 4.444-1.95 4.444-4.376V8.139c0-1.378 1.038-2.149 2.222-2.149 1.186 0 2.193.772 2.193 2.149v9.839c0 4.63-4.313 8.131-8.86 8.131-4.603 0-8.889-3.445-8.889-8.131V8.139z" style="fill:var(--color2, #fff)"/>
    </symbol>
    <symbol id="icon-letter-h-svgrepo-com" viewBox="0 0 32 32">
      <path fill="#D5F60C" d="M32 28.444A3.556 3.556 0 0 1 28.444 32H3.555a3.556 3.556 0 0 1-3.556-3.556V3.555A3.556 3.556 0 0 1 3.555-.001h24.889A3.556 3.556 0 0 1 32 3.555v24.889z" style="fill:var(--color1, #D5F60C)"/>
      <path fill="#fff" d="M22.667 6.222a2.222 2.222 0 0 0-2.222 2.222v4.889h-8.889V8.444a2.222 2.222 0 0 0-4.444 0v15.111a2.222 2.222 0 0 0 4.444 0v-5.778h8.889v5.778a2.222 2.222 0 0 0 4.444 0V8.444a2.222 2.222 0 0 0-2.222-2.222z" style="fill:var(--color2, #fff)"/>
    </symbol>
    <symbol id="icon-letter-j-svgrepo-com" viewBox="0 0 32 32">
      <path fill="#D5F60C" d="M32 28.444A3.556 3.556 0 0 1 28.444 32H3.555a3.556 3.556 0 0 1-3.556-3.556V3.555A3.556 3.556 0 0 1 3.555-.001h24.889A3.556 3.556 0 0 1 32 3.555v24.889z" style="fill:var(--color1, #D5F60C)"/>
      <path fill="#fff" d="M13.933 8.139c0-1.378.882-2.149 2.068-2.149s2.067.772 2.067 2.149v15.654c0 1.379-.882 2.149-2.067 2.149s-2.068-.771-2.068-2.149V8.139z" style="fill:var(--color2, #fff)"/>
    </symbol>
    <symbol id="icon-letter-s-svgrepo-com" viewBox="0 0 32 32">
      <path fill="#D5F60C" d="M32 28.444A3.556 3.556 0 0 1 28.444 32H3.555a3.556 3.556 0 0 1-3.556-3.556V3.555A3.556 3.556 0 0 1 3.555-.001h24.889A3.556 3.556 0 0 1 32 3.555v24.889z" style="fill:var(--color1, #D5F60C)"/>
      <path fill="#fff" d="M21.444 8.58c0 1.075-.716 2.039-1.845 2.039s-2.012-.827-3.667-.827c-1.185 0-2.26.634-2.26 1.792 0 2.838 9.206 1.02 9.206 8.13 0 3.941-3.252 6.394-7.056 6.394-2.123 0-6.697-.496-6.697-3.087 0-1.075.716-1.956 1.846-1.956 1.295 0 2.838 1.075 4.63 1.075 1.819 0 2.812-1.02 2.812-2.371 0-3.252-9.205-1.295-9.205-7.689 0-3.859 3.169-6.256 6.835-6.256 1.543.001 5.401.58 5.401 2.756z" style="fill:var(--color2, #fff)"/>
    </symbol>
    <symbol id="icon-letter-t-svgrepo-com" viewBox="0 0 32 32">
      <path fill="#D5F60C" d="M32 28.444A3.556 3.556 0 0 1 28.444 32H3.555a3.556 3.556 0 0 1-3.556-3.556V3.555A3.556 3.556 0 0 1 3.555-.001h24.889A3.556 3.556 0 0 1 32 3.555v24.889z" style="fill:var(--color1, #D5F60C)"/>
      <path fill="#fff" d="M13.934 9.958H10.93c-1.323 0-1.874-.964-1.874-1.901 0-.964.689-1.902 1.874-1.902h10.143c1.184 0 1.874.937 1.874 1.902 0 .937-.55 1.901-1.874 1.901h-3.005v13.836c0 1.379-.882 2.149-2.067 2.149s-2.067-.771-2.067-2.149V9.958z" style="fill:var(--color2, #fff)"/>
    </symbol>
    <symbol id="icon-letter-v-svgrepo-com" viewBox="0 0 32 32">
      <path fill="#D5F60C" d="M32 28.444A3.556 3.556 0 0 1 28.444 32H3.555a3.556 3.556 0 0 1-3.556-3.556V3.555A3.556 3.556 0 0 1 3.555-.001h24.889A3.556 3.556 0 0 1 32 3.555v24.889z" style="fill:var(--color1, #D5F60C)"/>
      <path fill="#fff" d="M7.926 8.993a2.54 2.54 0 0 1-.193-.98v-.042.002c0-1.157 1.02-1.984 2.122-1.984.938 0 1.516.606 1.874 1.35l4.272 11.465 4.273-11.465c.357-.744.936-1.35 1.873-1.35 1.102 0 2.122.827 2.122 1.984 0 .386-.053.661-.193 1.02l-6.035 15.352c-.359.882-.828 1.598-2.04 1.598s-1.681-.716-2.04-1.598L7.926 8.993z" style="fill:var(--color2, #fff)"/>
    </symbol>
        <symbol id="icon-mingcute_laptop-fill" viewBox="0 0 32 32">
      <path fill="#fff" d="M28 25.333a1.336 1.336 0 0 1 1.021 2.19 1.334 1.334 0 0 1-.865.468L28 28H4a1.336 1.336 0 0 1-1.021-2.19c.219-.261.528-.428.865-.468L4 25.333h24zm-2.667-20a2.668 2.668 0 0 1 2.66 2.466l.007.2v13.333a2.668 2.668 0 0 1-2.466 2.66l-.2.007H6.667a2.668 2.668 0 0 1-2.66-2.466l-.007-.2V8a2.668 2.668 0 0 1 2.466-2.66l.2-.007h18.667z" style="fill:var(--color1, #fff)"/>
    </symbol>
  </defs>
</svg>
